<?xml version="1.0" standalone="no"?>
<!DOCTYPE svg PUBLIC "-//W3C//DTD SVG 20010904//EN"
 "http://www.w3.org/TR/2001/REC-SVG-20010904/DTD/svg10.dtd">
<svg version="1.0" xmlns="http://www.w3.org/2000/svg"
 width="204.000000pt" height="261.000000pt" viewBox="0 0 204.000000 261.000000"
 preserveAspectRatio="xMidYMid meet">

<g transform="translate(0.000000,261.000000) scale(0.100000,-0.100000)"
fill="#000000" stroke="none">
<path d="M884 2460 c0 -58 1 -81 3 -52 2 28 2 76 0 105 -2 28 -3 5 -3 -53z"/>
<path d="M1250 2410 c0 -5 11 -10 24 -10 14 0 28 -5 32 -12 5 -8 2 -9 -9 -5
-9 3 -43 12 -75 18 -52 11 -66 10 -104 -4 -50 -19 -70 -22 -48 -6 11 8 1 9
-40 6 -52 -5 -140 -42 -140 -59 0 -4 -21 -19 -47 -33 -27 -13 -66 -45 -88 -70
-22 -25 -52 -59 -67 -76 -16 -17 -28 -34 -28 -38 0 -14 -25 -61 -32 -61 -16 0
-58 -101 -58 -137 0 -21 -9 -70 -19 -108 -11 -38 -16 -72 -12 -75 4 -3 11 -20
14 -39 6 -30 5 -33 -13 -28 -42 11 -77 -120 -51 -188 6 -16 10 -10 20 30 7 28
18 61 25 74 l14 24 7 -22 c4 -15 1 -29 -10 -41 -21 -23 -25 -91 -6 -114 7 -9
22 -16 33 -16 18 0 20 -6 17 -71 -3 -59 -1 -72 14 -80 29 -17 57 -1 57 31 0
37 -9 60 -24 60 -6 0 -12 10 -13 23 -1 12 -5 38 -8 58 -5 26 -3 39 10 49 15
13 16 10 12 -31 -2 -24 -2 -34 0 -21 5 24 23 31 23 8 0 -8 4 -17 9 -20 5 -3 9
12 9 35 1 51 27 122 67 179 58 84 75 121 75 161 0 21 -4 39 -10 39 -13 0 -13
37 0 45 6 3 14 -5 20 -19 6 -17 28 -34 67 -52 53 -24 72 -39 73 -55 0 -4 -20
-16 -44 -28 -46 -21 -76 -54 -76 -82 0 -9 -7 -19 -15 -23 -9 -3 -15 -18 -15
-35 0 -22 5 -30 25 -35 14 -4 25 -11 25 -16 0 -6 8 -10 18 -10 9 0 25 -7 36
-15 24 -19 10 -65 -27 -83 -14 -7 -36 -33 -49 -60 -13 -26 -28 -53 -35 -60
-17 -18 -26 -94 -19 -156 5 -36 3 -56 -4 -61 -6 -4 -9 -13 -7 -19 3 -7 -8 -25
-23 -40 -25 -23 -29 -24 -33 -9 -4 17 -5 17 -6 0 -1 -23 12 -48 61 -114 33
-45 36 -53 20 -53 -15 0 -21 -9 -24 -37 -5 -40 -2 -197 5 -246 3 -18 -1 -31
-12 -37 -9 -4 -12 -12 -8 -16 4 -4 1 -14 -7 -23 -16 -18 -24 -61 -14 -77 4 -6
-3 -17 -17 -24 -23 -12 -41 -51 -36 -80 5 -28 30 -43 68 -42 43 1 76 -21 85
-56 5 -16 1 -26 -12 -34 -16 -10 -16 -13 -3 -27 35 -35 -11 -20 -99 32 -111
66 -137 92 -174 175 -24 55 -26 67 -15 84 11 19 11 20 -5 14 -22 -8 -34 9 -34
52 0 25 8 42 31 63 17 16 28 29 24 29 -13 0 -65 -41 -65 -51 0 -6 -16 -25 -35
-43 -19 -19 -35 -29 -35 -25 0 5 -9 9 -19 9 -24 0 -32 -23 -26 -71 6 -48 -19
-61 -33 -19 -6 16 -17 28 -25 26 -25 -3 -48 -28 -42 -44 4 -12 3 -12 -9 -3 -7
6 -21 9 -30 5 -20 -8 -21 -21 -1 -21 8 0 11 5 8 10 -3 6 -1 7 6 3 17 -11 3
-26 -25 -26 -29 0 -29 0 -5 -44 18 -31 18 -36 4 -48 -9 -7 -40 -13 -74 -12
-51 0 -57 -2 -49 -16 7 -13 4 -20 -13 -28 -12 -6 -30 -11 -39 -11 -49 -2 -48
1 -48 -103 l0 -98 123 0 122 0 45 44 c25 24 67 69 94 100 27 31 55 56 61 56 7
0 11 9 8 23 -2 12 1 28 6 36 7 10 30 -5 102 -69 66 -59 116 -93 169 -117 41
-19 93 -43 115 -54 37 -18 60 -19 235 -18 107 1 187 4 178 6 -28 7 -9 33 24
33 25 0 29 -3 25 -20 -4 -17 0 -20 26 -20 92 0 216 65 310 162 l68 70 22 -19
c12 -10 41 -32 65 -48 24 -16 57 -46 74 -68 43 -54 105 -97 140 -97 l28 0 -1
117 c-1 65 -4 110 -6 100 -5 -21 -39 -23 -47 -2 -3 8 -12 12 -21 9 -8 -3 -15
-1 -15 5 0 6 7 11 15 11 8 0 15 5 15 10 0 6 -20 10 -44 10 -31 0 -46 5 -50 16
-9 24 -7 28 8 15 16 -13 23 -6 30 31 5 27 -15 45 -36 31 -6 -3 -8 -1 -5 4 4 6
-5 23 -18 37 l-25 27 -1 -23 c0 -23 0 -23 -11 2 l-10 25 -9 -23 c-5 -13 -7
-27 -4 -32 8 -12 -27 -90 -41 -90 -17 0 -27 17 -13 22 15 5 23 153 10 176 -9
15 -10 15 -11 -3 l-1 -20 -15 20 c-16 21 -35 26 -45 12 -11 -15 -49 12 -49 34
0 22 -60 89 -80 89 -6 0 2 -13 18 -30 40 -39 47 -77 21 -113 -22 -31 -31 -60
-30 -95 0 -13 -5 -35 -13 -50 -8 -15 -15 -40 -17 -57 -4 -37 -41 -80 -91 -106
-20 -10 -51 -32 -70 -49 -18 -17 -39 -28 -46 -25 -7 3 -10 0 -7 -5 3 -6 -1
-10 -9 -10 -14 0 -17 7 -16 35 0 3 -6 18 -14 33 -23 45 -10 74 45 100 28 13
69 24 94 24 31 1 45 5 45 15 0 7 4 13 10 13 5 0 7 7 4 15 -4 8 -12 15 -18 15
-13 0 -34 57 -41 108 -2 15 -8 41 -15 57 -13 34 -22 165 -11 165 4 0 8 17 9
39 3 41 6 59 17 104 5 19 3 27 -6 27 -10 0 -11 2 -2 8 24 15 143 206 143 229
0 3 -9 -2 -20 -12 -27 -25 -31 -17 -15 29 9 26 11 46 4 63 -5 13 -9 48 -8 76
0 43 2 48 10 28 5 -13 7 -40 4 -60 -4 -29 -3 -31 4 -11 14 39 12 98 -3 128 -8
15 -32 41 -53 59 -27 22 -38 39 -37 55 3 41 15 66 36 71 16 5 19 11 14 31 -7
30 13 36 34 11 7 -8 18 -15 26 -15 13 0 37 34 29 42 -2 2 -6 21 -9 42 -6 48
-38 83 -88 96 -21 6 -38 15 -38 21 0 17 -52 59 -100 80 -24 11 -48 26 -52 32
-13 21 -9 77 6 77 13 0 14 41 1 97 -4 18 0 24 20 29 14 3 32 15 39 26 28 39
103 25 183 -35 57 -43 68 -78 58 -191 -11 -130 -9 -163 19 -283 27 -112 35
-197 22 -224 -5 -11 -2 -18 8 -22 11 -5 16 0 16 14 0 15 6 19 23 17 20 -3 22
1 25 51 2 30 -2 59 -7 64 -13 13 -15 77 -2 77 8 0 31 -97 31 -135 0 -11 -9
-38 -20 -60 -19 -37 -19 -65 0 -35 43 67 60 170 39 243 -8 31 -7 43 5 62 20
30 22 52 4 37 -10 -8 -13 6 -13 66 0 43 -4 117 -9 165 -6 72 -12 93 -33 118
-26 30 -26 30 -6 44 19 14 30 71 12 59 -5 -3 -9 1 -9 9 0 8 -6 20 -14 26 -12
10 -13 8 -9 -11 7 -27 7 -28 -42 42 -22 30 -34 51 -27 46 7 -4 12 -2 12 3 0
14 -52 86 -65 90 -5 2 -21 11 -35 20 -42 29 -152 83 -157 77 -3 -3 -28 4 -57
14 -58 23 -66 24 -66 10z m3 -37 c-7 -2 -19 -2 -25 0 -7 3 -2 5 12 5 14 0 19
-2 13 -5z m-232 -30 c-8 -15 -10 -15 -11 -2 0 17 10 32 18 25 2 -3 -1 -13 -7
-23z m-116 -33 c-3 -5 -13 -10 -21 -10 -8 0 -12 5 -9 10 3 6 13 10 21 10 8 0
12 -4 9 -10z m676 -57 c13 -16 12 -17 -3 -4 -10 7 -18 15 -18 17 0 8 8 3 21
-13z m-961 -255 c-12 -40 -40 -72 -40 -44 0 9 4 16 9 16 5 0 15 16 21 36 15
45 23 39 10 -8z m1083 -58 c3 -11 1 -20 -4 -20 -5 0 -9 4 -9 9 0 5 -3 17 -7
27 -4 11 -3 15 4 11 6 -4 13 -16 16 -27z m-879 -15 c-4 -8 -10 -15 -15 -15 -4
0 -6 7 -3 15 4 8 10 15 15 15 4 0 6 -7 3 -15z m456 -343 c0 -29 10 -51 45 -97
52 -70 57 -90 19 -81 -23 6 -25 4 -19 -11 4 -10 10 -31 13 -47 l5 -29 -24 21
c-12 12 -27 22 -31 22 -5 0 -20 12 -32 27 -21 24 -27 26 -52 17 -16 -5 -28
-16 -27 -24 2 -10 -7 -15 -25 -16 -15 -1 -37 -5 -49 -9 -34 -11 -32 31 2 47
29 13 34 48 8 49 -16 0 -16 1 -2 7 23 10 69 67 69 85 0 9 5 19 10 22 6 3 10
15 10 25 0 19 16 27 58 29 19 1 22 -4 22 -37z m-430 -302 c0 -5 -4 -10 -10
-10 -5 0 -10 5 -10 10 0 6 5 10 10 10 6 0 10 -4 10 -10z m-10 -36 c0 -8 -5
-12 -10 -9 -6 4 -8 11 -5 16 9 14 15 11 15 -7z m503 -184 c-3 -11 -12 -20 -19
-20 -15 0 -15 21 1 32 17 13 23 9 18 -12z m-578 -70 c3 -5 1 -10 -4 -10 -6 0
-11 5 -11 10 0 6 2 10 4 10 3 0 8 -4 11 -10z m645 -43 c0 -27 -26 -45 -80 -53
-35 -6 -40 -4 -40 13 0 15 14 26 53 41 66 26 67 26 67 -1z m-400 -17 c0 -5 7
-7 15 -4 8 4 15 1 15 -5 0 -16 -25 -13 -40 4 -9 10 -9 15 -1 15 6 0 11 -4 11
-10z m-606 -576 c8 -21 1 -28 -18 -21 -9 4 -13 13 -10 22 8 20 20 19 28 -1z
m-150 -50 c3 -8 2 -12 -4 -9 -6 3 -10 10 -10 16 0 14 7 11 14 -7z m183 -28
c-20 -20 -34 -2 -16 20 8 10 16 11 22 5 6 -6 4 -15 -6 -25z m1328 -17 c4 -6 5
-12 2 -15 -7 -7 -37 7 -37 17 0 13 27 11 35 -2z m75 -19 c13 -8 13 -11 1 -22
-9 -8 -12 -9 -7 -1 3 6 -2 16 -11 22 -10 6 -13 10 -8 11 6 0 17 -5 25 -10z
m50 -80 c6 -11 9 -20 7 -20 -2 0 -12 9 -22 20 -10 11 -13 20 -7 20 6 0 16 -9
22 -20z"/>
<path d="M1210 1430 c0 -5 5 -10 10 -10 6 0 10 5 10 10 0 6 -4 10 -10 10 -5 0
-10 -4 -10 -10z"/>
<path d="M1645 2160 c3 -5 8 -10 11 -10 2 0 4 5 4 10 0 6 -5 10 -11 10 -5 0
-7 -4 -4 -10z"/>
<path d="M1345 1920 c3 -5 11 -10 16 -10 6 0 7 5 4 10 -3 6 -11 10 -16 10 -6
0 -7 -4 -4 -10z"/>
<path d="M501 1452 c-1 -19 28 -72 39 -72 15 0 12 16 -6 31 -9 7 -20 22 -24
34 -5 11 -9 14 -9 7z"/>
<path d="M556 1342 c-2 -4 -1 -14 5 -22 7 -12 9 -10 9 8 0 23 -5 28 -14 14z"/>
<path d="M1621 1243 c2 -15 0 -34 -4 -41 -14 -22 29 -14 49 10 10 12 14 18 7
15 -7 -5 -13 1 -15 15 -2 13 -11 24 -21 26 -15 3 -18 -2 -16 -25z"/>
<path d="M646 1251 c-4 -7 -5 -15 -2 -18 9 -9 19 4 14 18 -4 11 -6 11 -12 0z"/>
<path d="M1890 379 c0 -6 6 -9 13 -6 6 2 21 0 32 -6 18 -9 19 -9 6 6 -15 19
-51 23 -51 6z"/>
<path d="M635 360 c4 -6 11 -8 16 -5 14 9 11 15 -7 15 -8 0 -12 -5 -9 -10z"/>
<path d="M1943 330 c-13 -20 -5 -34 14 -22 5 4 7 15 4 24 -6 17 -7 16 -18 -2z"/>
<path d="M175 320 c-3 -6 1 -13 10 -16 21 -9 26 -2 10 13 -9 8 -16 9 -20 3z"/>
<path d="M1370 155 c0 -9 5 -15 11 -13 6 2 11 8 11 13 0 5 -5 11 -11 13 -6 2
-11 -4 -11 -13z"/>
<path d="M718 3 c6 -2 18 -2 25 0 6 3 1 5 -13 5 -14 0 -19 -2 -12 -5z"/>
</g>
</svg>
